<?xml version="1.0" encoding="UTF-8"?>
<svg width="507px" height="79px" viewBox="0 0 507 79" version="1.1" xmlns="http://www.w3.org/2000/svg" xmlns:xlink="http://www.w3.org/1999/xlink">
    <title>LogoPSLight</title>
    <g id="Logo" stroke="none" stroke-width="1" fill="none" fill-rule="evenodd">
        <g id="Artboard" transform="translate(-173.000000, -294.000000)">
            <g id="LogoPSLight" transform="translate(173.000000, 294.000000)">
                <path d="M79,0 L79,79 L70.7772574,79 L70.777,78.999 L8.222,78.999 L8.22274265,79 L0,79 L0,0 L79,0 Z M70.777,8.229 L8.222,8.229 L8.222,70.77 L70.777,70.77 L70.777,8.229 Z M27.6284153,17.775 L27.6284153,28.625 L59.2037471,28.625 L59.2037471,36.525 L27.6284153,36.525 L27.6284153,42.475 L59.2037471,42.475 L59.2037471,50.375 L27.6284153,50.375 L27.6284153,61.225 L19.7345824,61.225 L19.7345824,17.775 L27.6284153,17.775 Z" id="Rectangle-Copy-13" fill="#5D4AEE"></path>
                <path d="M121.8,65 L121.8,44.984 L125.544,44.984 C128.28,44.984 130.488,44.516 132.168,43.58 C133.848,42.644 135.192,41.336 136.2,39.656 C137.064,38.264 137.628,36.776 137.892,35.192 C138.156,33.608 138.288,31.664 138.288,29.36 C138.288,26.288 138.048,23.852 137.568,22.052 C137.088,20.252 136.224,18.68 134.976,17.336 C133.728,15.992 132.336,15.056 130.8,14.528 C129.264,14 127.488,13.736 125.472,13.736 L125.472,13.736 L114.456,13.736 L114.456,65 L121.8,65 Z M125.328,38.072 L121.8,38.072 L121.8,20.648 L125.616,20.648 C127.056,20.648 128.16,20.864 128.928,21.296 C129.696,21.728 130.272,22.352 130.656,23.168 C131.04,23.984 131.256,24.932 131.304,26.012 C131.352,27.092 131.376,28.232 131.376,29.432 C131.376,30.728 131.34,31.904 131.268,32.96 C131.196,34.016 130.968,34.904 130.584,35.624 C130.2,36.392 129.6,36.992 128.784,37.424 C127.968,37.856 126.816,38.072 125.328,38.072 L125.328,38.072 Z M163.104,65 L163.104,43.112 L167.496,43.112 L174.336,65 L182.112,65 L174.192,41.6 C176.544,40.304 178.188,38.6 179.124,36.488 C180.06,34.376 180.528,31.808 180.528,28.784 C180.528,18.752 176.208,13.736 167.568,13.736 L167.568,13.736 L155.76,13.736 L155.76,65 L163.104,65 Z M167.28,36.632 L163.104,36.632 L163.104,20.648 L166.92,20.648 C169.464,20.648 171.192,21.32 172.104,22.664 C172.536,23.384 172.824,24.236 172.968,25.22 C173.112,26.204 173.184,27.344 173.184,28.64 C173.184,29.936 173.112,31.076 172.968,32.06 C172.824,33.044 172.56,33.872 172.176,34.544 C171.744,35.216 171.144,35.732 170.376,36.092 C169.608,36.452 168.576,36.632 167.28,36.632 L167.28,36.632 Z M210.312,65.432 C211.8,65.432 213.276,65.168 214.74,64.64 C216.204,64.112 217.536,63.32 218.736,62.264 C219.888,61.256 220.824,59.984 221.544,58.448 C222.264,56.912 222.624,55.064 222.624,52.904 L222.624,52.904 L222.624,25.832 C222.624,23.768 222.264,21.944 221.544,20.36 C220.824,18.776 219.888,17.456 218.736,16.4 C217.536,15.392 216.204,14.624 214.74,14.096 C213.276,13.568 211.8,13.304 210.312,13.304 C208.824,13.304 207.348,13.568 205.884,14.096 C204.42,14.624 203.112,15.392 201.96,16.4 C200.76,17.456 199.8,18.776 199.08,20.36 C198.36,21.944 198,23.768 198,25.832 L198,25.832 L198,52.904 C198,55.064 198.36,56.912 199.08,58.448 C199.8,59.984 200.76,61.256 201.96,62.264 C203.112,63.32 204.42,64.112 205.884,64.64 C207.348,65.168 208.824,65.432 210.312,65.432 Z M210.312,58.088 C208.968,58.088 207.804,57.668 206.82,56.828 C205.836,55.988 205.344,54.68 205.344,52.904 L205.344,52.904 L205.344,25.832 C205.344,24.056 205.836,22.748 206.82,21.908 C207.804,21.068 208.968,20.648 210.312,20.648 C211.656,20.648 212.82,21.068 213.804,21.908 C214.788,22.748 215.28,24.056 215.28,25.832 L215.28,25.832 L215.28,52.904 C215.28,54.68 214.788,55.988 213.804,56.828 C212.82,57.668 211.656,58.088 210.312,58.088 Z M252.984,65.432 C254.472,65.432 255.948,65.168 257.412,64.64 C258.876,64.112 260.208,63.32 261.408,62.264 C262.56,61.256 263.496,59.984 264.216,58.448 C264.936,56.912 265.296,55.064 265.296,52.904 L265.296,52.904 L265.296,25.832 C265.296,23.768 264.936,21.944 264.216,20.36 C263.496,18.776 262.56,17.456 261.408,16.4 C260.208,15.392 258.876,14.624 257.412,14.096 C255.948,13.568 254.472,13.304 252.984,13.304 C251.496,13.304 250.02,13.568 248.556,14.096 C247.092,14.624 245.784,15.392 244.632,16.4 C243.432,17.456 242.472,18.776 241.752,20.36 C241.032,21.944 240.672,23.768 240.672,25.832 L240.672,25.832 L240.672,52.904 C240.672,55.064 241.032,56.912 241.752,58.448 C242.472,59.984 243.432,61.256 244.632,62.264 C245.784,63.32 247.092,64.112 248.556,64.64 C250.02,65.168 251.496,65.432 252.984,65.432 Z M252.984,58.088 C251.64,58.088 250.476,57.668 249.492,56.828 C248.508,55.988 248.016,54.68 248.016,52.904 L248.016,52.904 L248.016,25.832 C248.016,24.056 248.508,22.748 249.492,21.908 C250.476,21.068 251.64,20.648 252.984,20.648 C254.328,20.648 255.492,21.068 256.476,21.908 C257.46,22.748 257.952,24.056 257.952,25.832 L257.952,25.832 L257.952,52.904 C257.952,54.68 257.46,55.988 256.476,56.828 C255.492,57.668 254.328,58.088 252.984,58.088 Z M291.12,65 L291.12,43.112 L303.792,43.112 L303.792,36.2 L291.12,36.2 L291.12,20.648 L305.664,20.648 L305.664,13.736 L283.776,13.736 L283.776,65 L291.12,65 Z M333.504,65.432 C335.856,65.432 337.848,65.048 339.48,64.28 C341.112,63.512 342.432,62.456 343.44,61.112 C344.4,59.816 345.096,58.244 345.528,56.396 C345.96,54.548 346.176,52.544 346.176,50.384 C346.176,48.512 346.08,46.844 345.888,45.38 C345.696,43.916 345.336,42.608 344.808,41.456 C344.232,40.352 343.44,39.38 342.432,38.54 C341.424,37.7 340.104,36.968 338.472,36.344 L338.472,36.344 L332.856,34.112 C331.896,33.728 331.14,33.344 330.588,32.96 C330.036,32.576 329.616,32.12 329.328,31.592 C329.04,31.064 328.86,30.464 328.788,29.792 C328.716,29.12 328.68,28.28 328.68,27.272 C328.68,26.408 328.752,25.58 328.896,24.788 C329.04,23.996 329.304,23.288 329.688,22.664 C330.072,22.088 330.576,21.608 331.2,21.224 C331.824,20.84 332.64,20.648 333.648,20.648 C335.52,20.648 336.852,21.26 337.644,22.484 C338.436,23.708 338.832,25.16 338.832,26.84 L338.832,26.84 L338.832,28.496 L346.176,28.496 L346.176,24.896 C346.176,21.92 345.072,19.28 342.864,16.976 C341.76,15.872 340.452,14.984 338.94,14.312 C337.428,13.64 335.76,13.304 333.936,13.304 C331.776,13.304 329.916,13.676 328.356,14.42 C326.796,15.164 325.512,16.16 324.504,17.408 C323.448,18.656 322.656,20.144 322.128,21.872 C321.6,23.6 321.336,25.424 321.336,27.344 C321.336,30.56 321.876,33.236 322.956,35.372 C324.036,37.508 326.16,39.224 329.328,40.52 L329.328,40.52 L334.584,42.68 C335.496,43.064 336.228,43.424 336.78,43.76 C337.332,44.096 337.776,44.528 338.112,45.056 C338.4,45.584 338.592,46.28 338.688,47.144 C338.784,48.008 338.832,49.112 338.832,50.456 C338.832,51.608 338.796,52.652 338.724,53.588 C338.652,54.524 338.424,55.328 338.04,56 C337.656,56.672 337.116,57.188 336.42,57.548 C335.724,57.908 334.752,58.088 333.504,58.088 C331.632,58.088 330.3,57.548 329.508,56.468 C328.716,55.388 328.32,54.176 328.32,52.832 L328.32,52.832 L328.32,50.528 L320.976,50.528 L320.976,53.264 C320.976,54.992 321.3,56.588 321.948,58.052 C322.596,59.516 323.472,60.8 324.576,61.904 C325.68,63.008 327,63.872 328.536,64.496 C330.072,65.12 331.728,65.432 333.504,65.432 Z M370.992,65 L370.992,44.984 L374.736,44.984 C377.472,44.984 379.68,44.516 381.36,43.58 C383.04,42.644 384.384,41.336 385.392,39.656 C386.256,38.264 386.82,36.776 387.084,35.192 C387.348,33.608 387.48,31.664 387.48,29.36 C387.48,26.288 387.24,23.852 386.76,22.052 C386.28,20.252 385.416,18.68 384.168,17.336 C382.92,15.992 381.528,15.056 379.992,14.528 C378.456,14 376.68,13.736 374.664,13.736 L374.664,13.736 L363.648,13.736 L363.648,65 L370.992,65 Z M374.52,38.072 L370.992,38.072 L370.992,20.648 L374.808,20.648 C376.248,20.648 377.352,20.864 378.12,21.296 C378.888,21.728 379.464,22.352 379.848,23.168 C380.232,23.984 380.448,24.932 380.496,26.012 C380.544,27.092 380.568,28.232 380.568,29.432 C380.568,30.728 380.532,31.904 380.46,32.96 C380.388,34.016 380.16,34.904 379.776,35.624 C379.392,36.392 378.792,36.992 377.976,37.424 C377.16,37.856 376.008,38.072 374.52,38.072 L374.52,38.072 Z M406.32,65 L408.48,53.984 L418.488,53.984 L420.648,65 L427.992,65 L416.544,13.736 L410.424,13.736 L398.976,65 L406.32,65 Z M417.12,47.072 L409.776,47.072 L413.376,28.496 L413.52,28.496 L417.12,47.072 Z M455.256,65.432 C456.888,65.432 458.412,65.108 459.828,64.46 C461.244,63.812 462.48,62.936 463.536,61.832 C464.592,60.728 465.42,59.468 466.02,58.052 C466.62,56.636 466.92,55.136 466.92,53.552 L466.92,53.552 L466.92,50.384 L459.576,50.384 L459.576,52.904 C459.576,53.912 459.432,54.752 459.144,55.424 C458.856,56.096 458.496,56.624 458.064,57.008 C457.584,57.392 457.068,57.668 456.516,57.836 C455.964,58.004 455.448,58.088 454.968,58.088 C453.288,58.088 452.124,57.584 451.476,56.576 C450.828,55.568 450.504,54.32 450.504,52.832 L450.504,52.832 L450.504,26.624 C450.504,24.896 450.804,23.468 451.404,22.34 C452.004,21.212 453.216,20.648 455.04,20.648 C456.432,20.648 457.536,21.176 458.352,22.232 C459.168,23.288 459.576,24.536 459.576,25.976 L459.576,25.976 L459.576,28.424 L466.92,28.424 L466.92,25.544 C466.92,23.768 466.62,22.124 466.02,20.612 C465.42,19.1 464.592,17.792 463.536,16.688 C461.376,14.432 458.568,13.304 455.112,13.304 C453.336,13.304 451.716,13.604 450.252,14.204 C448.788,14.804 447.528,15.632 446.472,16.688 C445.416,17.744 444.6,18.992 444.024,20.432 C443.448,21.872 443.16,23.432 443.16,25.112 L443.16,25.112 L443.16,53.336 C443.16,55.688 443.532,57.62 444.276,59.132 C445.02,60.644 445.968,61.88 447.12,62.84 C448.272,63.8 449.568,64.472 451.008,64.856 C452.448,65.24 453.864,65.432 455.256,65.432 Z M506.784,65 L506.784,57.656 L492.24,57.656 L492.24,42.608 L504.912,42.608 L504.912,35.696 L492.24,35.696 L492.24,20.648 L506.784,20.648 L506.784,13.736 L484.896,13.736 L484.896,65 L506.784,65 Z" id="PROOFSPACE" fill="#000000" fill-rule="nonzero"></path>
            </g>
        </g>
    </g>
</svg>